<svg width="420" height="188" viewBox="0 0 420 188" fill="none" xmlns="http://www.w3.org/2000/svg">
<path d="M82.2112 138.756C82.2112 138.756 82.0903 138.756 82.0903 138.635C82.3322 138.272 82.4531 137.909 82.574 137.546C85.3551 130.896 87.5316 124.004 88.9826 116.99C90.3127 110.34 91.1592 103.689 90.0709 96.918C88.9826 89.1792 85.2342 83.1333 78.8255 78.6594C74.7143 75.9992 70.3613 74.0645 65.5245 72.9762C59.1159 71.4043 52.5863 70.1951 46.0567 68.865C43.8802 68.3813 41.8246 67.7768 39.769 67.0512C37.9552 66.3257 37.7134 65.2375 38.6807 63.5446C39.2853 62.5773 39.8899 61.6099 40.7364 61.0053C43.6384 58.4661 46.5404 55.9268 49.5634 53.7503C57.1812 48.309 65.1618 43.4722 73.9888 40.3284C78.4628 38.7564 82.9367 37.5473 87.6525 38.0309C92.6102 38.3937 95.8749 41.0539 96.7214 45.7697C97.205 47.8253 97.4469 50.2437 97.0841 52.4202C96.6005 56.2896 95.6331 60.2798 94.7867 64.1492C94.6658 64.7538 94.5449 65.4793 94.6658 66.0839C94.6658 66.4467 95.2704 66.8094 95.5122 67.0512C95.875 66.8094 96.3586 66.5676 96.4795 66.0839C96.8423 64.7538 97.0841 63.1819 97.4469 61.7309C98.6561 56.8941 99.6234 51.9365 99.0188 46.737C98.1724 40.4493 93.8193 36.459 87.5316 36.0962C82.9367 35.8544 78.7046 36.5799 74.3516 38.0309C66.0082 40.812 58.5113 45.0442 51.2562 50.0018C47.0241 52.7829 42.9129 55.685 39.4062 59.3125C38.1971 60.5217 37.2297 61.8518 36.5042 63.3028C35.5369 65.3584 36.1415 67.1722 38.0761 68.3814C39.2853 69.1069 40.7363 69.7115 42.1874 70.0742C47.5077 71.1625 52.7072 72.0089 58.0276 73.0972C63.348 74.1854 68.7893 75.6364 73.747 78.0548C80.8811 81.5614 85.7178 86.8818 87.5316 94.7415C88.6199 99.3364 88.6199 103.931 88.1362 108.647C87.4107 115.902 85.476 123.036 83.1785 129.929C80.8811 136.579 78.1 142.867 74.9561 149.034C74.5934 149.759 74.3515 150.485 75.198 150.847C75.9235 151.331 76.4072 150.727 76.7699 150.122C80.7602 143.592 85.476 137.667 90.3127 131.863C97.4469 123.52 105.307 115.781 113.408 108.405C118.487 103.81 123.686 99.4573 128.886 94.9833C129.006 94.8624 129.248 94.8624 129.248 94.7415C129.369 94.2578 129.611 93.6532 129.49 93.4114C129.127 93.1695 128.523 93.0486 128.16 93.1695C127.676 93.1695 127.314 93.5323 126.951 93.895C122.235 98.0063 117.398 101.997 112.803 106.229C104.46 113.726 96.4795 121.706 89.2245 130.17C86.8061 133.072 84.5087 135.854 82.2112 138.756Z" fill="#C7D5E2"/>
<path d="M125.016 97.1598C125.016 97.7644 125.016 98.2481 125.016 98.8526C125.621 100.787 127.072 101.513 129.006 101.513C130.216 101.513 131.546 101.392 132.755 101.15C139.889 99.2154 147.023 97.2807 154.037 95.346C154.399 95.346 154.641 95.1042 154.883 94.9833C155.488 94.7414 155.729 94.1369 155.367 93.6532C155.246 93.4113 154.52 93.2904 154.157 93.4113C147.386 95.2251 140.736 97.1598 133.964 98.9736C132.15 99.4572 130.337 99.5782 128.402 99.5782C127.193 99.5782 126.588 98.7317 126.951 97.5226C127.314 96.3134 127.918 94.9833 128.402 93.895C128.644 93.2904 128.886 92.8067 128.402 92.444C127.797 91.9603 127.314 92.2021 126.951 92.6858C126.709 92.9277 126.588 93.1695 126.467 93.5323C125.984 94.7414 125.5 95.9506 125.016 97.1598ZM130.578 85.068C130.095 85.068 129.369 85.1889 129.369 86.0353C129.369 86.8818 129.974 87.1236 130.578 87.1236C131.183 87.1236 131.909 87.0027 132.029 86.1562C132.029 85.3098 131.425 85.1889 130.578 85.068Z" fill="#C7D5E2"/>
<path d="M152.948 119.288H152.827C152.827 118.804 152.948 118.32 152.948 117.837C153.795 111.065 154.641 104.415 155.367 97.6435C155.608 96.1925 155.488 94.6206 155.488 93.1695C155.488 92.444 154.883 91.9603 154.278 92.2022C153.916 92.3231 153.553 92.9277 153.553 93.4114C153.311 95.2251 153.432 97.1598 153.19 99.0945C151.739 110.582 150.167 122.19 148.716 133.677C148.474 135.37 148.232 137.063 147.991 138.756C147.991 139.36 148.112 139.965 148.837 140.086C149.563 140.207 149.925 139.723 150.167 139.118C150.288 138.514 150.409 138.03 150.409 137.546C153.674 121.948 158.631 106.954 166.128 92.8068C166.37 92.565 166.491 92.2022 166.733 91.8395C167.096 93.5323 167.338 95.2252 167.821 96.918C168.789 99.5782 170.844 100.666 173.625 99.82C174.472 99.5782 175.197 99.2154 176.044 98.9736C179.55 97.7644 183.057 96.6762 186.563 95.467C186.926 95.3461 187.41 94.7415 187.41 94.3787C187.41 94.1369 186.926 93.5323 186.684 93.4114C186.201 93.2905 185.717 93.4114 185.233 93.5323C183.903 93.8951 182.573 94.3787 181.243 94.8624C178.462 95.8298 175.802 96.918 173.021 97.8854C171.449 98.369 170.481 97.8854 169.877 96.4343C169.514 95.467 169.272 94.3787 169.151 93.4114C169.03 91.8395 169.03 90.2675 168.909 88.6956C168.909 88.2119 168.547 87.6073 168.184 87.4864C167.7 87.3655 167.096 87.6073 166.733 87.9701C166.37 88.2119 166.007 88.8165 165.766 89.3002C162.501 95.3461 159.357 101.513 156.939 108.163C155.608 111.791 154.278 115.539 152.948 119.288Z" fill="#C7D5E2"/>
<path d="M184.024 119.288H183.903C183.903 118.804 184.024 118.32 184.024 117.837C184.871 111.065 185.717 104.415 186.443 97.6435C186.684 96.1925 186.563 94.6206 186.563 93.1695C186.563 92.444 185.959 91.9603 185.354 92.2022C184.992 92.3231 184.629 92.9277 184.629 93.4114C184.387 95.2251 184.508 97.1598 184.266 99.0945C182.815 110.582 181.243 122.19 179.792 133.677C179.55 135.37 179.308 137.063 179.067 138.756C179.067 139.36 179.187 139.965 179.913 140.086C180.639 140.207 181.001 139.723 181.243 139.118C181.364 138.514 181.485 138.03 181.485 137.546C184.75 121.948 189.707 106.954 197.204 92.8068C197.446 92.565 197.567 92.2022 197.809 91.8395C198.172 93.5323 198.413 95.2252 198.897 96.918C199.864 99.5782 201.92 100.666 204.701 99.82C205.548 99.5782 206.273 99.2154 207.12 98.9736C210.626 97.7644 214.133 96.6762 217.639 95.467C218.002 95.3461 218.486 94.7415 218.486 94.3787C218.486 94.1369 218.002 93.5323 217.76 93.4114C217.277 93.2905 216.793 93.4114 216.309 93.5323C214.979 93.8951 213.649 94.3787 212.319 94.8624C209.538 95.8298 206.878 96.918 204.097 97.8854C202.525 98.369 201.557 97.8854 200.953 96.4343C200.59 95.467 200.348 94.3787 200.227 93.4114C200.106 91.8395 200.106 90.2675 199.985 88.6956C199.985 88.2119 199.623 87.6073 199.26 87.4864C198.776 87.3655 198.172 87.6073 197.809 87.9701C197.446 88.2119 197.083 88.8165 196.842 89.3002C193.577 95.3461 190.433 101.513 188.015 108.163C186.684 111.791 185.354 115.539 184.024 119.288Z" fill="#C7D5E2"/>
<path d="M216.914 96.7971C216.793 96.7971 216.793 96.6762 216.672 96.5552C217.639 95.5879 218.607 94.4996 219.695 93.6532C219.816 93.4114 220.3 93.5323 220.541 93.6532C221.025 93.6532 221.388 93.7741 221.872 93.7741C221.872 93.2905 222.113 92.6859 221.992 92.3231C221.509 91.3558 220.3 90.993 219.211 91.7185C217.277 92.6859 215.947 94.2578 214.979 96.0716C214.616 96.7971 214.375 97.7644 215.1 98.4899C215.826 99.3364 216.672 99.0945 217.519 98.6109C218.486 98.1272 219.332 97.6435 220.3 97.0389C221.025 96.6762 221.509 96.7971 222.234 97.2808C223.323 98.0063 224.532 98.7318 225.862 98.9736C227.555 99.2155 229.248 99.2155 230.819 98.8527C235.293 97.8854 239.767 96.6762 244.12 95.5879C244.483 95.467 244.846 95.3461 244.967 95.2252C245.209 94.7415 245.571 94.2578 245.571 93.8951C245.33 93.2905 244.725 93.4114 244.241 93.5323C239.526 94.7415 234.931 96.0716 230.215 97.1599C227.797 97.6435 225.378 97.5226 223.443 95.8297C221.872 94.4996 221.025 94.4996 219.211 95.467C218.486 95.9507 217.639 96.4343 216.914 96.7971Z" fill="#C7D5E2"/>
<path d="M245.813 103.327H245.692C247.143 95.8297 248.353 88.2119 250.045 80.715C252.464 70.0742 255.245 59.4334 257.905 48.7926C258.268 46.9789 258.631 45.1651 258.993 43.3513C259.114 42.6258 258.631 41.9003 257.905 42.0212C257.542 42.1421 256.938 42.7467 256.817 43.2304C256.454 44.6814 256.333 46.3743 255.97 47.8253C251.376 65.963 246.66 83.9798 243.758 102.48C243.153 106.35 242.428 110.098 241.702 113.967C241.46 114.935 241.823 115.539 242.548 115.539C243.274 115.418 243.516 114.935 243.758 114.33C244.967 109.252 247.506 104.657 249.804 100.062C249.804 99.9409 249.924 99.82 250.045 99.6991C250.892 101.997 252.585 102.722 254.64 102.601C256.091 102.48 257.421 102.359 258.872 101.997C266.248 100.425 273.262 97.6435 280.396 95.1042C280.759 94.9833 281.121 94.8624 281.242 94.6206C281.484 94.2578 281.484 93.7741 281.605 93.4114C281.242 93.2904 280.638 93.0486 280.396 93.1695C273.624 95.5879 266.853 98.1272 259.84 99.82C258.026 100.304 256.091 100.546 254.157 100.666C252.585 100.787 251.859 99.82 251.98 98.2481C252.101 97.5226 252.222 96.6762 252.464 95.9506C253.068 94.4996 253.673 92.9277 254.398 91.3558C254.64 90.7512 254.761 90.1466 254.036 89.7838C253.31 89.4211 252.947 89.9048 252.585 90.3884C252.343 90.8721 252.101 91.3558 251.859 91.7185C249.924 95.5879 247.99 99.3364 246.055 103.085C246.055 103.206 245.934 103.327 245.813 103.327Z" fill="#C7D5E2"/>
<path d="M286.321 97.8853C289.102 97.7644 292.004 97.8853 294.785 97.4016C300.589 96.1925 300.831 96.1925 306.635 94.7414C306.998 94.7414 307.361 94.6205 307.602 94.3787C307.723 94.1369 307.965 93.6532 307.844 93.4114C307.723 93.1695 307.361 92.9277 306.998 92.9277C306.756 92.8068 306.393 92.9277 306.03 93.0486C302.282 94.0159 298.292 95.1042 294.301 95.7088C291.762 96.0716 292.367 96.0716 288.255 96.0716C287.167 96.0716 285.958 95.8297 285.112 94.7415C284.628 94.016 283.54 94.1369 283.056 94.7415C282.572 95.3461 282.693 96.1925 283.54 96.6762C284.144 97.0389 284.144 97.4017 284.023 97.8853C283.419 99.6991 282.572 101.15 281.242 102.48C281 102.722 280.517 102.964 279.791 103.448C279.912 102.48 279.912 101.876 280.154 101.271C280.88 99.0945 281.726 96.918 282.572 94.6205C282.814 93.895 283.298 93.2904 283.419 92.5649C283.54 92.0813 283.54 91.4767 283.298 91.2348C283.056 90.993 282.331 90.993 281.968 91.1139C281.242 91.3558 280.638 91.7185 280.154 92.2022C279.791 92.5649 279.428 93.0486 279.428 93.5323C279.428 93.7741 280.033 94.0159 280.396 94.3787C279.791 96.0716 279.066 97.8853 278.582 99.82C278.219 100.787 277.977 101.876 277.977 102.964C277.977 105.019 279.428 105.866 281.242 104.778C282.089 104.294 282.935 103.568 283.54 102.843C284.628 101.15 285.474 99.4573 286.321 97.8853Z" fill="#C7D5E2"/>
<path d="M306.514 102.964C306.514 102.964 306.514 102.964 306.393 102.843C306.514 101.271 306.877 99.5782 306.877 98.0062C307.119 96.3134 307.361 94.7414 307.481 93.0486C307.481 92.444 307.361 91.8394 306.756 91.8394C306.151 91.8394 305.789 92.3231 305.789 92.8067C305.426 96.6761 304.821 100.425 304.579 104.173C304.579 105.019 304.338 105.866 304.338 106.712C304.338 107.196 304.821 107.801 304.942 107.801C305.305 107.922 305.91 107.559 306.151 107.196C306.514 106.833 306.756 106.35 307.119 105.745C308.932 101.876 310.988 98.0062 313.648 94.3787C314.132 93.6532 314.737 93.0486 315.22 92.444C315.704 92.0812 316.188 92.0812 316.429 92.5649C316.792 93.1695 317.155 93.7741 317.518 94.2578C318.606 96.0715 320.299 97.0389 322.475 96.918C324.168 96.918 325.982 96.797 327.675 96.6761C330.093 96.3134 332.511 95.7088 334.93 95.1042C335.534 94.9833 335.897 94.7414 335.776 94.1369C335.655 93.4113 335.172 93.4113 334.567 93.5323C334.204 93.6532 333.842 93.6532 333.479 93.7741C329.972 94.6205 326.345 95.346 322.596 95.346C320.903 95.2251 319.694 94.6205 318.848 93.1695C318.364 92.444 318.122 91.8394 317.639 91.2348C316.671 90.1466 315.462 90.0256 314.374 91.1139C313.648 91.7185 312.802 92.5649 312.318 93.4113C310.504 96.3134 308.691 99.3363 306.877 102.238C306.756 102.48 306.635 102.722 306.514 102.964Z" fill="#C7D5E2"/>
<path d="M335.414 98.4899C335.414 98.4899 335.293 98.369 335.293 98.2481C335.534 96.918 335.897 95.467 336.26 94.1369C336.381 93.5323 336.26 92.9277 335.534 92.8068C334.93 92.5649 334.567 93.0486 334.325 93.6532C334.083 95.1042 333.721 96.5552 333.358 98.0063C333.116 98.8527 333.116 99.6991 333.842 100.425C334.567 100.908 335.293 100.666 336.018 100.304C337.711 99.5782 339.283 98.7318 340.855 97.8853C343.515 96.5552 346.054 96.3134 348.835 97.2807C350.286 97.7644 351.617 98.2481 353.068 98.7318C359.113 100.546 365.159 101.029 371.326 98.9736C375.075 97.7644 378.944 96.5552 382.813 95.3461C383.418 95.1042 384.143 94.8624 383.902 94.016C383.66 93.0486 382.813 93.4114 382.209 93.5323C382.088 93.5323 381.846 93.6532 381.725 93.6532C377.614 94.9833 373.503 96.1925 369.271 97.5226C365.885 98.4899 362.257 98.7318 358.751 98.0063C355.849 97.2807 353.068 96.4343 350.286 95.7088C348.956 95.3461 347.626 94.9833 346.296 94.7415C343.999 94.4996 341.943 95.2252 339.887 96.1925C338.436 97.0389 336.985 97.7644 335.414 98.4899Z" fill="#C7D5E2"/>
<path fill-rule="evenodd" clip-rule="evenodd" d="M0 181.373C0 182.947 0.556502 184.291 1.6695 185.404C2.78256 186.517 4.12636 187.074 5.70024 187.074H414.299C415.873 187.074 417.217 186.517 418.33 185.404C419.443 184.291 420 182.947 420 181.373V5.70058C420 4.12675 419.443 2.78291 418.33 1.66908C417.217 0.556363 415.874 0 414.299 0H5.70024C4.12636 0 2.78289 0.556353 1.66983 1.66908C0.55661 2.78236 0 4.1262 0 5.70058V181.373ZM5.70024 184.784C4.75826 184.784 3.9542 184.451 3.28806 183.786C2.62214 183.119 2.28885 182.315 2.28885 181.373V5.70058C2.28885 4.75794 2.62181 3.95362 3.28773 3.28764C3.95393 2.62221 4.7581 2.28951 5.70024 2.28951H414.299C415.242 2.28951 416.046 2.62221 416.712 3.28764C417.377 3.95417 417.711 4.75849 417.711 5.70058V181.373C417.711 182.316 417.377 183.12 416.712 183.786C416.046 184.451 415.242 184.784 414.299 184.784H5.70024Z" fill="#C7D5E2"/>
</svg>
